<svg xmlns="http://www.w3.org/2000/svg" viewBox="0 0 800 450"><defs><linearGradient id="bg" x1="0" y1="0" x2="0" y2="1"><stop offset="0" stop-color="#0b1a10"/><stop offset="1" stop-color="#050705"/></linearGradient></defs><rect width="800" height="450" fill="url(#bg)"/><g stroke="#5ad07a" stroke-opacity="0.12" stroke-width="0.6"><path d="M0 90h800M0 180h800M0 270h800M0 360h800M100 0v450M200 0v450M300 0v450M400 0v450M500 0v450M600 0v450M700 0v450"/></g><circle cx="292" cy="299" r="15.2" fill="#3f8f4e" opacity="0.90"/><circle cx="395" cy="116" r="13.9" fill="#3f8f4e" opacity="0.90"/><circle cx="70" cy="237" r="10.4" fill="#3f8f4e" opacity="0.90"/><circle cx="613" cy="244" r="10.1" fill="#3f8f4e" opacity="0.90"/><circle cx="184" cy="73" r="10.6" fill="#3f8f4e" opacity="0.90"/><circle cx="695" cy="66" r="12.8" fill="#3f8f4e" opacity="0.90"/><circle cx="338" cy="333" r="11.9" fill="#3f8f4e" opacity="0.90"/><circle cx="577" cy="138" r="14.1" fill="#3f8f4e" opacity="0.90"/><circle cx="684" cy="71" r="12.6" fill="#3f8f4e" opacity="0.90"/><circle cx="675" cy="122" r="13.1" fill="#3f8f4e" opacity="0.90"/><circle cx="118" cy="337" r="10.7" fill="#3f8f4e" opacity="0.90"/><circle cx="509" cy="162" r="15.5" fill="#3f8f4e" opacity="0.90"/><circle cx="120" cy="371" r="14.6" fill="#3f8f4e" opacity="0.90"/><circle cx="159" cy="342" r="9.6" fill="#3f8f4e" opacity="0.90"/><circle cx="106" cy="115" r="12.1" fill="#3f8f4e" opacity="0.90"/><circle cx="97" cy="272" r="15.5" fill="#3f8f4e" opacity="0.90"/><circle cx="716" cy="137" r="10.0" fill="#3f8f4e" opacity="0.90"/><circle cx="339" cy="264" r="12.2" fill="#3f8f4e" opacity="0.90"/><circle cx="278" cy="373" r="14.2" fill="#3f8f4e" opacity="0.90"/><circle cx="285" cy="150" r="8.9" fill="#3f8f4e" opacity="0.90"/><ellipse cx="560" cy="130" rx="52" ry="30" fill="#5aa864" stroke="#8fe896" stroke-width="3"/><path d="M200 320 q60 -20 120 -30 M330 290 q90 -10 160 -50" stroke="#5ad07a" stroke-width="3" fill="none" stroke-linecap="round" stroke-dasharray="8 8"/><path d="M640 180 q40 60 30 120" stroke="#5ad07a" stroke-width="3" fill="none" stroke-linecap="round" stroke-dasharray="8 8"/><path d="M200 320 q120 40 300 20" stroke="#5ad07a" stroke-width="3" fill="none" stroke-linecap="round" stroke-dasharray="8 8"/><text x="120" y="120" fill="#9fb3a4" font-family="monospace" font-size="20">phytoplankton</text><text x="490" y="70" fill="#9fb3a4" font-family="monospace" font-size="20">zooplankton</text><text x="290" y="410" fill="#9fb3a4" font-family="monospace" font-size="20">fish and shellfish larvae</text></svg>