<svg xmlns="http://www.w3.org/2000/svg" viewBox="0 0 800 450"><defs><linearGradient id="bg" x1="0" y1="0" x2="0" y2="1"><stop offset="0" stop-color="#0b1a10"/><stop offset="1" stop-color="#050705"/></linearGradient></defs><rect width="800" height="450" fill="url(#bg)"/><g stroke="#5ad07a" stroke-opacity="0.12" stroke-width="0.6"><path d="M0 90h800M0 180h800M0 270h800M0 360h800M100 0v450M200 0v450M300 0v450M400 0v450M500 0v450M600 0v450M700 0v450"/></g><g><rect x="130" y="190" width="40" height="28" rx="6" fill="#b98a3c" stroke="#e8cf8a" stroke-width="2"/><rect x="176" y="190" width="40" height="28" rx="6" fill="#b98a3c" stroke="#e8cf8a" stroke-width="2"/><rect x="222" y="190" width="40" height="28" rx="6" fill="#b98a3c" stroke="#e8cf8a" stroke-width="2"/><rect x="268" y="190" width="40" height="28" rx="6" fill="#b98a3c" stroke="#e8cf8a" stroke-width="2"/><path d="M168 192 l26 -18" stroke="#e8cf8a" stroke-width="2.2" stroke-linecap="round"/><path d="M214 192 l26 -18" stroke="#e8cf8a" stroke-width="2.2" stroke-linecap="round"/><path d="M260 192 l26 -18" stroke="#e8cf8a" stroke-width="2.2" stroke-linecap="round"/><path d="M306 192 l26 -18" stroke="#e8cf8a" stroke-width="2.2" stroke-linecap="round"/></g><g><rect x="340" y="190" width="40" height="28" rx="6" fill="#b98a3c" stroke="#e8cf8a" stroke-width="2"/><rect x="386" y="190" width="40" height="28" rx="6" fill="#b98a3c" stroke="#e8cf8a" stroke-width="2"/><rect x="432" y="190" width="40" height="28" rx="6" fill="#b98a3c" stroke="#e8cf8a" stroke-width="2"/><rect x="478" y="190" width="40" height="28" rx="6" fill="#b98a3c" stroke="#e8cf8a" stroke-width="2"/><path d="M378 192 l26 -18" stroke="#e8cf8a" stroke-width="2.2" stroke-linecap="round"/><path d="M424 192 l26 -18" stroke="#e8cf8a" stroke-width="2.2" stroke-linecap="round"/><path d="M470 192 l26 -18" stroke="#e8cf8a" stroke-width="2.2" stroke-linecap="round"/><path d="M516 192 l26 -18" stroke="#e8cf8a" stroke-width="2.2" stroke-linecap="round"/></g><g><rect x="550" y="190" width="40" height="28" rx="6" fill="#b98a3c" stroke="#e8cf8a" stroke-width="2"/><rect x="596" y="190" width="40" height="28" rx="6" fill="#b98a3c" stroke="#e8cf8a" stroke-width="2"/><rect x="642" y="190" width="40" height="28" rx="6" fill="#b98a3c" stroke="#e8cf8a" stroke-width="2"/><rect x="688" y="190" width="40" height="28" rx="6" fill="#b98a3c" stroke="#e8cf8a" stroke-width="2"/><path d="M588 192 l26 -18" stroke="#e8cf8a" stroke-width="2.2" stroke-linecap="round"/><path d="M634 192 l26 -18" stroke="#e8cf8a" stroke-width="2.2" stroke-linecap="round"/><path d="M680 192 l26 -18" stroke="#e8cf8a" stroke-width="2.2" stroke-linecap="round"/><path d="M726 192 l26 -18" stroke="#e8cf8a" stroke-width="2.2" stroke-linecap="round"/></g><circle cx="118" cy="279" r="6.4" fill="#8a6a30" opacity="0.55"/><circle cx="69" cy="200" r="7.7" fill="#8a6a30" opacity="0.55"/><circle cx="328" cy="67" r="6.8" fill="#8a6a30" opacity="0.55"/><circle cx="735" cy="238" r="7.1" fill="#8a6a30" opacity="0.55"/><circle cx="114" cy="387" r="8.4" fill="#8a6a30" opacity="0.55"/><circle cx="281" cy="222" r="7.2" fill="#8a6a30" opacity="0.55"/><circle cx="620" cy="165" r="5.0" fill="#8a6a30" opacity="0.55"/><circle cx="563" cy="134" r="5.9" fill="#8a6a30" opacity="0.55"/></svg>