<svg xmlns="http://www.w3.org/2000/svg" viewBox="0 0 800 450"><defs><linearGradient id="bg" x1="0" y1="0" x2="0" y2="1"><stop offset="0" stop-color="#0b1a10"/><stop offset="1" stop-color="#050705"/></linearGradient></defs><rect width="800" height="450" fill="url(#bg)"/><g stroke="#5ad07a" stroke-opacity="0.12" stroke-width="0.6"><path d="M0 90h800M0 180h800M0 270h800M0 360h800M100 0v450M200 0v450M300 0v450M400 0v450M500 0v450M600 0v450M700 0v450"/></g><ellipse cx="190" cy="220" rx="34" ry="20" fill="#4fae5f" opacity="1.00" stroke="#8fe896" stroke-width="2"/><path d="M175 202 q10 16 -30 30" fill="none" stroke="#8fe896" stroke-width="2.4" stroke-linecap="round" opacity="0.85"/><path d="M185 202 q10 16 -10 30" fill="none" stroke="#8fe896" stroke-width="2.4" stroke-linecap="round" opacity="0.85"/><path d="M195 202 q10 16 10 30" fill="none" stroke="#8fe896" stroke-width="2.4" stroke-linecap="round" opacity="0.85"/><path d="M205 202 q10 16 30 30" fill="none" stroke="#8fe896" stroke-width="2.4" stroke-linecap="round" opacity="0.85"/><ellipse cx="430" cy="150" rx="30" ry="18" fill="#46a056" opacity="1.00" stroke="#8fe896" stroke-width="2"/><path d="M415 134 q10 14 -30 26" fill="none" stroke="#8fe896" stroke-width="2.4" stroke-linecap="round" opacity="0.85"/><path d="M425 134 q10 14 -10 26" fill="none" stroke="#8fe896" stroke-width="2.4" stroke-linecap="round" opacity="0.85"/><path d="M435 134 q10 14 10 26" fill="none" stroke="#8fe896" stroke-width="2.4" stroke-linecap="round" opacity="0.85"/><path d="M445 134 q10 14 30 26" fill="none" stroke="#8fe896" stroke-width="2.4" stroke-linecap="round" opacity="0.85"/><ellipse cx="620" cy="290" rx="32" ry="19" fill="#4fae5f" opacity="1.00" stroke="#8fe896" stroke-width="2"/><path d="M605 273 q10 15 -30 28" fill="none" stroke="#8fe896" stroke-width="2.4" stroke-linecap="round" opacity="0.85"/><path d="M615 273 q10 15 -10 28" fill="none" stroke="#8fe896" stroke-width="2.4" stroke-linecap="round" opacity="0.85"/><path d="M625 273 q10 15 10 28" fill="none" stroke="#8fe896" stroke-width="2.4" stroke-linecap="round" opacity="0.85"/><path d="M635 273 q10 15 30 28" fill="none" stroke="#8fe896" stroke-width="2.4" stroke-linecap="round" opacity="0.85"/><circle cx="352" cy="171" r="11.9" fill="#3f8f4e" opacity="0.60"/><circle cx="679" cy="134" r="9.7" fill="#3f8f4e" opacity="0.60"/><circle cx="298" cy="163" r="12.3" fill="#3f8f4e" opacity="0.60"/><circle cx="345" cy="96" r="12.7" fill="#3f8f4e" opacity="0.60"/><circle cx="468" cy="121" r="11.7" fill="#3f8f4e" opacity="0.60"/><circle cx="355" cy="138" r="11.1" fill="#3f8f4e" opacity="0.60"/></svg>